<svg width="133" height="116" viewBox="0 0 133 116" fill="none" xmlns="http://www.w3.org/2000/svg">
<path d="M58.1823 0.188112C59.0378 -0.0303017 59.9307 -0.0587294 60.7984 0.103934C64.0525 0.713945 66.9711 1.31199 69.7825 2.47737C71.5071 3.19227 73.0865 4.07468 74.6728 5.17174C78.8369 3.2069 83.2629 2.38741 87.7033 3.28233C92.2658 4.20187 96.0927 6.77949 99.1628 10.427C100.35 10.2788 101.653 10.2036 102.993 10.306C108.439 10.714 113.493 13.2909 117.023 17.4579C120.984 22.1029 122.369 26.996 122.507 32.0221C127.446 35.7471 130.963 40.2421 132.144 45.8753C133.363 51.6896 131.832 57.5334 128.959 63.2411C129.883 67.8066 129.757 71.8887 128.018 75.8093C126.203 79.9042 122.88 83.0964 119.696 86.0738C118.855 86.86 117.807 87.3902 116.676 87.6029C111.278 88.6176 109.554 89.539 103.941 92.184C102.245 92.9829 100.275 92.9523 98.6051 92.1012C97.5399 91.5583 96.7388 91.1819 95.9673 90.8694C92.6564 95.3919 88.0098 98.0712 82.9663 99.1768C77.7145 100.328 72.1555 99.774 67.1204 98.2002L66.7317 98.4783C66.6532 98.5344 66.5728 98.5885 66.4917 98.6408C64.193 100.122 62.0845 101.313 59.6712 102.118C58.1253 102.633 56.5927 102.944 54.9796 103.146C54.7506 103.476 54.4968 103.845 54.2141 104.258C53.3139 105.573 52.178 107.235 50.9311 108.763C49.716 110.253 48.1005 111.992 46.0988 113.251C43.9997 114.571 41.0557 115.603 37.6849 114.745C36.9659 114.562 36.2868 114.248 35.681 113.82C33.7172 112.431 32.2523 110.638 31.3932 108.505C30.5587 106.433 30.4361 104.392 30.5744 102.664C30.6252 102.029 30.7193 101.391 30.8401 100.762C28.7047 99.9342 26.7029 98.8365 24.9509 97.29C21.8758 94.5757 20.1849 91.0551 19.1676 87.0057C19.0931 86.9877 19.0152 86.9688 18.9335 86.9498C18.4722 86.8429 17.9923 86.7442 17.4064 86.6217C16.8538 86.5061 16.2081 86.3696 15.5663 86.212C14.4175 85.9297 12.6129 85.4326 11.0095 84.3975C3.77787 79.7287 1.56909 71.8434 0.187297 66.4136C-0.0538326 65.4659 -0.0623427 64.4741 0.162964 63.5226C0.754938 61.0229 1.30892 58.9485 2.23783 56.8968C2.78459 55.6892 3.4209 54.5774 4.16078 53.4409C2.88996 48.3012 3.24689 43.6296 5.87658 39.4357C8.05304 35.9646 11.501 33.4274 14.8639 31.3184C16.0519 24.9669 19.0595 19.3379 23.8881 15.5336C28.5843 11.8337 34.4849 10.2723 40.8698 11.0215C42.615 8.63943 44.3472 6.57278 46.5032 4.9534C49.7123 2.54315 53.434 1.40048 58.1823 0.188112Z" fill="white"/>
<path d="M59.6816 6.0625C66.2384 7.29164 69.0529 8.08671 74.138 12.4267C82.856 6.64096 90.9422 8.1224 96.5128 17.0843C98.5135 16.6552 100.48 16.1942 102.531 16.3508C106.361 16.6356 109.916 18.4467 112.399 21.3773C115.956 25.5417 116.758 29.9025 116.37 35.146C127.821 42.4192 129.11 50.7165 122.538 62.4114L122.617 62.7064C125.034 72.0387 122.181 75.4539 115.556 81.6479C109.329 82.8184 106.995 84.0463 101.357 86.7029C98.0546 85.0199 96.6478 84.6134 93.1211 83.5976C88.5562 94.7705 76.123 95.5786 66.1898 91.4187L63.2089 93.5475C58.9228 96.3092 56.7645 97.0422 51.7525 97.3559C48.6823 100.904 44.298 110.176 39.1799 108.873C34.8178 105.788 36.9559 100.78 38.4235 96.6101C29.8926 94.8427 26.3099 92.349 24.6627 83.7949C24.056 80.6444 17.0967 81.1147 14.2965 79.307C9.26675 76.0597 7.47026 70.4603 6.06055 64.9207C7.22385 60.0086 7.84476 58.5803 10.8046 54.4994C7.02211 43.8189 11.9178 40.0964 20.464 35.009C21.6219 22.3141 30.7383 14.2367 43.5637 17.7044C49.1431 9.71922 50.1563 8.49455 59.6816 6.0625Z" fill="black"/>
<path d="M38.2361 23.3101C43.691 22.6984 41.7786 26.035 48.6447 24.6186C52.2284 26.9865 55.9088 29.6987 57.7868 33.9137C57.8526 34.061 55.656 37.1959 55.1794 38.1876C55.1647 40.0411 56.2048 41.7772 57.0127 43.5245C55.8416 44.9277 52.6697 48.0219 53.3333 49.7943C54.3027 50.0378 62.4627 47.9315 64.0192 47.5706L69.69 49.6858C72.7201 53.8492 71.4724 53.6204 72.9989 57.9818C73.8289 60.3532 81.0082 60.446 83.0364 61.3768C84.3082 61.9606 85.4489 62.9612 86.5769 63.9324C86.8523 64.8878 87.1331 65.8418 87.4192 66.7938C88.7489 71.1698 88.6478 68.4272 90.8007 69.5746C84.6567 73.9281 83.9292 73.0311 84.8339 80.1237C85.5034 85.3727 73.8785 86.5319 72.0594 85.2353C65.1315 80.2965 64.7373 80.736 58.6664 87.1284C56.679 89.249 51.2261 89.4213 47.6899 89.139C45.433 89.3133 43.5481 90.1548 41.4266 90.9463C37.1803 89.7321 33.6186 88.7555 31.2674 84.623L31.5963 84.0402C38.0957 83.7771 44.7218 87.8011 50.7514 82.0248C52.4611 80.3874 52.1263 78.341 50.2502 77.0905C48.145 77.0075 42.5129 78.9739 40.0405 79.6293C38.0309 79.1207 36.6055 78.8825 34.8541 77.8397C33.6648 77.1312 29.546 74.371 28.2511 74.3484C24.8009 74.2885 24.1093 76.4866 19.9763 74.3425C14.3531 71.4256 10.7419 64.0517 15.9297 58.8405C17.3606 57.4373 19.3593 57.8742 20.4996 55.6752C20.45 50.7718 16.2591 51.8814 16.0019 49.3347C15.0884 40.2949 21.8288 41.8866 25.6197 41.188C30.7378 40.2448 25.7797 31.7927 27.7902 28.9475C30.3839 25.2785 34.3225 24.517 38.2361 23.3101Z" fill="white"/>
<path d="M31.3816 50.0977L33.0884 50.1286C36.4449 52.1333 31.5137 54.8887 33.5145 59.0925C36.4533 65.2677 49.9811 56.6302 52.5032 61.8779C52.1149 63.3907 51.9186 63.4727 50.7974 64.6496C48.2464 65.716 42.7511 67.2174 39.8982 68.0688C31.0204 65.4307 21.4052 59.34 31.3816 50.0977Z" fill="black"/>
<path d="M58.8943 61.9141C62.0491 63.5058 62.5606 64.6926 64.1555 67.7097C67.2916 68.4398 70.2707 68.6813 72.1399 71.3037C72.0403 72.9515 72.3034 72.2263 71.3192 73.5554L71.8743 72.9588C70.5706 73.8804 71.0335 73.8298 69.6527 73.8799C66.7654 72.7585 65.899 73.7812 62.6082 73.3212C61.1464 72.1065 55.6315 65.6466 55.4141 63.9816C56.4002 62.6486 57.3172 62.5028 58.8943 61.9141Z" fill="black"/>
<path d="M38.2745 31.7266C41.4352 31.8881 44.0196 31.6809 44.7456 35.4684C42.4748 38.2542 40.1074 36.0684 36.5982 38.3063C34.8276 39.003 33.5273 39.3624 31.8318 38.4526C30.5983 34.4825 35.2119 32.5396 38.2745 31.7266Z" fill="black"/>
<path d="M47.5636 39.1367C49.5502 39.7662 50.177 40.3107 50.9011 42.1519C50.8426 44.1104 49.8894 45.3281 48.8684 46.9842C47.3639 47.0377 48.0359 47.2473 46.816 46.2423C46.2923 44.2229 46.603 40.975 47.5636 39.1367Z" fill="black"/>
<path d="M59.2847 13.4071C70.6848 12.6461 67.6724 19.9277 72.0347 21.7964C76.4666 20.6897 81.1351 12.3054 87.2624 15.2507C88.8287 16.0039 90.585 18.0041 91.1951 19.6223L90.2183 21.3427C90.0004 22.9772 91.2477 25.436 91.9265 27.1175C93.3186 26.1385 96.2598 23.9429 97.8035 23.5226C102.374 22.2795 108.372 23.3336 109.372 28.8468C110.241 33.6328 108.409 35.8441 105.876 39.5947C111.299 42.135 118.999 40.9571 119.787 48.6973C120.196 52.7125 119.607 55.9903 114.86 56.1631C112.786 56.2387 111.381 57.8383 109.948 59.2125C112.995 60.9192 114.17 61.7371 116.459 64.3201C116.584 74.4111 113.243 74.987 103.667 77.8146C100.494 78.7513 95.1622 76.2346 92.2186 74.9777C90.1349 74.0881 93.3196 67.0225 92.9087 65.2525C92.841 54.9244 79.798 56.8632 76.8067 53.6797C78.8909 45.0278 66.5862 42.6485 61.5083 41.1545C58.4846 40.2649 61.657 29.7821 60.9644 27.3242C59.9611 23.7632 54.2191 20.6686 51.0801 18.6104L51.3412 17.4242C53.553 14.7961 56.0721 14.2476 59.2847 13.4071Z" fill="white"/>
<path d="M74.4893 26.4414C77.5282 26.6736 77.9823 27.933 79.3548 30.5087C81.8209 35.4397 87.1178 33.3953 91.3079 34.6429C95.1489 35.7874 97.1168 38.6542 98.9949 41.9188L98.6218 48.3792C102.682 49.6224 109.854 50.4738 110.364 56.6789C110.555 59.0052 109.609 59.803 108.083 61.3374C105.802 60.7015 105.113 58.5024 104.249 56.5478C95.1249 53.9976 91.1901 52.8713 94.2315 42.2596L89.3474 38.2924C86.9416 38.5875 84.5423 38.9297 82.1503 39.3185C74.9767 36.2067 74.8986 33.8097 74.4893 26.4414Z" fill="black"/>
</svg>
